Coordinates
version=1
nRows=16
nColumns=40
inDegrees=yes

Units are S.I. units (second, meters, Newtons, ...)
Angles are in degrees.

endheader
time	pelvis_tilt	pelvis_list	pelvis_rotation	pelvis_tx	pelvis_ty	pelvis_tz	hip_flexion_r	hip_adduction_r	hip_rotation_r	knee_angle_r	knee_angle_r_beta	ankle_angle_r	subtalar_angle_r	mtp_angle_r	hip_flexion_l	hip_adduction_l	hip_rotation_l	knee_angle_l	knee_angle_l_beta	ankle_angle_l	subtalar_angle_l	mtp_angle_l	lumbar_extension	lumbar_bending	lumbar_rotation	arm_flex_r	arm_add_r	arm_rot_r	elbow_flex_r	pro_sup_r	wrist_flex_r	wrist_dev_r	arm_flex_l	arm_add_l	arm_rot_l	elbow_flex_l	pro_sup_l	wrist_flex_l	wrist_dev_l
     14.93500000	     -4.51897290	     -6.12851711	      8.62331305	      0.94833811	      0.92424566	      0.55498325	      6.29588842	      5.92386380	    -18.66898058	     12.99525207	     12.99525207	     13.41411803	     -4.93950568	     -7.18933978	     29.12390127	     -9.97738858	      0.88931481	     20.95442885	     20.95442885	      5.11057188	    -10.43928474	      5.89550325	     -9.52207951	      5.32953244	      3.69305264	     45.37805219	    -19.43525808	    -10.45096413	     79.76870583	     44.76860065	      0.00000000	      0.00000000	    -11.78255123	     -8.50122539	     10.03184071	     32.84384693	     44.50732884	      0.00000000	      0.00000000
     14.95450000	     -4.38226331	     -6.32454425	      8.88893528	      0.94879181	      0.92380133	      0.55227308	      5.50387725	      6.12602468	    -18.75500821	     12.56609387	     12.56609387	     13.62525746	     -4.79248698	     -6.98490528	     28.44749883	    -10.20274202	      0.11287724	     20.59962636	     20.59962636	      4.56017653	     -9.31646325	      4.74563398	     -9.56018515	      5.24981615	      3.60105982	     46.03242757	    -19.16761399	    -10.52777648	     80.34240800	     44.76853211	      0.00000000	      0.00000000	    -11.29009417	     -8.53063780	      9.64041768	     33.12986391	     44.59344906	      0.00000000	      0.00000000
     14.97400000	     -4.48701193	     -6.45471296	      9.19242790	      0.94910076	      0.92297242	      0.54916316	      5.17024865	      6.12094048	    -18.91279566	     12.54269590	     12.54269590	     13.87881121	     -4.93400496	     -6.99692694	     28.25944047	    -10.13854587	      0.03854069	     20.72249799	     20.72249799	      4.26949375	     -9.18567923	      4.65025648	     -9.29177427	      5.09582358	      3.55533243	     46.36006567	    -19.07841071	    -10.51071939	     80.46454675	     44.76684316	      0.00000000	      0.00000000	    -10.53362672	     -8.62167820	      9.53480282	     33.40405712	     44.62166034	      0.00000000	      0.00000000
     14.99350000	     -4.38859901	     -6.57324436	      9.47813288	      0.94978474	      0.92239309	      0.54581781	      4.53677622	      6.15644615	    -18.99417010	     12.44651854	     12.44651854	     14.48165957	     -4.85226863	     -5.90663389	     27.78059512	    -10.13932547	     -0.14518959	     20.71942821	     20.71942821	      2.89521440	     -9.28528055	      0.90607722	     -9.27279088	      4.97240058	      3.70859052	     46.41021599	    -19.05241907	    -11.05895930	     81.17038415	     44.81649593	      0.00000000	      0.00000000	     -9.79815799	     -8.37528363	      6.70059387	     33.98032608	     45.09972807	      0.00000000	      0.00000000
     15.01300000	     -4.46186693	     -6.58079142	      9.73599525	      0.95024769	      0.92189824	      0.54214443	      4.11175820	      5.99965126	    -19.08500086	     12.39001362	     12.39001362	     14.69960316	     -4.95436964	     -5.91279794	     27.62643637	     -9.91862792	     -0.09225814	     21.09782319	     21.09782319	      2.88254904	     -9.37010423	      0.82999512	     -9.10905204	      4.77977147	      3.52250164	     46.39966546	    -18.92966004	    -10.99708471	     81.12465021	     44.81694993	      0.00000000	      0.00000000	     -8.84951447	     -8.43770600	      6.61546978	     34.30948281	     45.12642076	      0.00000000	      0.00000000
     15.03250000	     -4.34724954	     -6.56689981	      9.99010665	      0.95085679	      0.92156821	      0.53819799	      3.39245670	      5.85995808	    -19.20289248	     12.17988835	     12.17988835	     14.87191449	     -4.89594206	     -5.76569003	     27.56687977	     -9.65317009	      0.30647853	     22.07583549	     22.07583549	      3.19499972	     -9.88777387	      0.59072945	     -9.16135990	      4.59155409	      3.63618993	     46.28963842	    -19.07205421	    -11.06931714	     80.84538022	     44.83247734	      0.00000000	      0.00000000	     -7.77965906	     -8.61989870	      6.20870217	     34.77216252	     45.20044721	      0.00000000	      0.00000000
     15.05200000	     -4.34326060	     -6.50544264	     10.20687120	      0.95139715	      0.92129842	      0.53401015	      2.79043859	      5.63163681	    -19.35813303	     11.98147877	     11.98147877	     14.97099795	     -4.85546302	     -5.59584865	     27.55005552	     -9.29985488	      0.64606447	     22.93002850	     22.93002850	      3.53348143	    -10.42514700	      0.43561869	     -9.09913513	      4.40417663	      3.69337387	     45.99534624	    -19.12624548	    -11.10860530	     80.53295045	     44.84593520	      0.00000000	      0.00000000	     -6.63329137	     -8.78933863	      5.81461735	     35.29916189	     45.27171160	      0.00000000	      0.00000000
     15.07150000	     -4.32792860	     -6.51571592	     10.35274199	      0.95195777	      0.92100802	      0.52966888	      2.13485291	      5.47342007	    -19.48000927	     11.69676381	     11.69676381	     15.09233542	     -4.58515687	     -5.34231373	     27.60162467	     -8.95859662	      1.29102101	     23.94315219	     23.94315219	      4.07129379	    -11.30798030	      0.45077353	     -9.03370143	      4.34381330	      4.02787559	     45.60722206	    -19.48067363	    -11.29399494	     79.93607846	     44.87517143	      0.00000000	      0.00000000	     -5.49148526	     -8.86192360	      5.11057291	     36.03064882	     45.38358424	      0.00000000	      0.00000000
     15.09100000	     -4.40828858	     -6.43489483	     10.40912951	      0.95240490	      0.92093571	      0.52514858	      1.57957725	      5.14228795	    -19.86354664	     11.45973839	     11.45973839	     15.34460882	     -3.82360328	     -4.58651433	     27.57273133	     -8.43139892	      2.06350808	     24.71293242	     24.71293242	      4.88330130	    -12.47675144	      1.75988451	     -8.91541951	      4.15475563	      4.54108653	     45.08192975	    -19.96042704	    -11.72097299	     78.78751600	     44.94223560	      0.00000000	      0.00000000	     -4.34115421	     -8.61165596	      2.57176658	     37.45745062	     45.73115478	      0.00000000	      0.00000000
     15.11050000	     -4.43020372	     -6.38779754	     10.38566464	      0.95277016	      0.92083681	      0.52061574	      1.13896159	      4.78313621	    -20.16465265	     11.58219530	     11.58219530	     15.81617522	     -3.08232372	     -3.48057922	     27.67245807	     -8.05388741	      2.47964281	     25.87953223	     25.87953223	      6.43364472	    -12.87411247	      3.96500112	     -8.91165206	      4.10772271	      4.18655110	     45.30001015	    -19.38242331	    -11.43715905	     76.96494695	     45.02980658	      0.00000000	      0.00000000	     -3.72346301	     -8.04645394	     -2.13966325	     38.86829818	     46.31332984	      0.00000000	      0.00000000
     15.13000000	     -4.50676709	     -6.34216562	     10.26937232	      0.95311517	      0.92074815	      0.51620433	      0.74046465	      4.46771067	    -20.09029141	     11.57928027	     11.57928027	     15.74324937	     -3.01951524	     -3.41851356	     27.57070671	     -7.75459383	      2.61623786	     26.51914322	     26.51914322	      6.98196017	    -13.29861485	      3.70683612	     -8.86382848	      4.11862030	      4.24368171	     44.78043040	    -19.09312417	    -11.26596788	     76.53839710	     45.03676522	      0.00000000	      0.00000000	     -2.54139269	     -8.28993733	     -2.29455682	     39.37266882	     46.34807587	      0.00000000	      0.00000000
     15.14950000	     -4.57253782	     -6.37710972	     10.07080119	      0.95331425	      0.92072962	      0.51167167	      0.41415040	      4.13992973	    -20.32263283	     11.73840672	     11.73840672	     15.82779976	     -2.29165880	     -3.08724013	     27.56888598	     -7.46220166	      2.98419091	     27.40310071	     27.40310071	      8.14131598	    -14.04647603	      5.35895755	     -8.74547321	      4.16425132	      4.21665833	     45.09010733	    -18.98441601	    -10.76052027	     72.82554998	     45.17101608	      0.00000000	      0.00000000	     -1.96551650	     -8.19053601	     -4.70611895	     41.21457113	     46.60658504	      0.00000000	      0.00000000
     15.16900000	     -4.62762776	     -6.38297486	      9.78773320	      0.95344945	      0.92087815	      0.50730258	      0.17626925	      3.78355870	    -20.21718681	     12.04336452	     12.04336452	     15.71403269	     -2.12294059	     -3.05344949	     27.33437156	     -7.26014317	      2.98122593	     27.86513160	     27.86513160	      8.68036923	    -14.54011428	      5.39597300	     -8.74192067	      4.24311959	      4.76499811	     44.42617901	    -19.28505537	    -10.68323844	     71.40246274	     45.21748929	      0.00000000	      0.00000000	     -0.70438247	     -8.40496283	     -5.07127653	     42.15261654	     46.66087342	      0.00000000	      0.00000000
     15.18850000	     -4.68471649	     -6.42967958	      9.48095563	      0.95354304	      0.92118425	      0.50299156	     -0.04788704	      3.47600424	    -20.04769642	     12.31856465	     12.31856465	     15.51247873	     -1.99645082	     -3.02322930	     27.01858367	     -7.13528132	      2.88118641	     28.15439934	     28.15439934	      9.13381151	    -14.86956610	      5.29451059	     -8.78410474	      4.42467899	      4.81439430	     43.64600036	    -18.86030751	    -10.47332795	     70.77057341	     45.22808084	      0.00000000	      0.00000000	      0.43300544	     -8.83497793	     -5.20961575	     42.68909112	     46.69162884	      0.00000000	      0.00000000
     15.20800000	     -4.79980056	     -6.31040966	      9.09133556	      0.95336826	      0.92152239	      0.49853915	      0.13054780	      2.75950517	    -20.16062183	     13.35513306	     13.35513306	     15.65529318	     -1.44347842	     -2.89719926	     26.70089560	     -6.79977708	      2.73425773	     28.44103286	     28.44103286	     10.04886971	    -15.22372437	      6.69461237	     -8.64756052	      4.35481116	      4.52173388	     44.25489855	    -18.33905893	     -9.73065668	     65.33917432	     45.39652747	      0.00000000	      0.00000000	      0.81317462	     -9.31413874	     -5.86364282	     44.64176809	     46.75263986	      0.00000000	      0.00000000
     15.22750000	     -4.87630559	     -6.24762192	      8.67274349	      0.95322628	      0.92201809	      0.49424045	      0.28085204	      2.17992561	    -19.85962645	     14.30835875	     14.30835875	     15.53757904	     -1.52253642	     -2.97991985	     26.23079069	     -6.61933378	      2.35182973	     28.46799960	     28.46799960	     10.47998220	    -15.35197973	      6.75230230	     -8.68505418	      4.38173757	      4.84820127	     43.19343642	    -18.42465319	     -9.48774546	     63.77685867	     45.43758039	      0.00000000	      0.00000000	      1.95331112	     -9.76536064	     -6.15995548	     45.55004840	     46.79716933	      0.00000000	      0.00000000
